<?xml version="1.0" standalone="no"?>
<!DOCTYPE svg PUBLIC "-//W3C//DTD SVG 20010904//EN"
 "http://www.w3.org/TR/2001/REC-SVG-20010904/DTD/svg10.dtd">
<svg version="1.0" xmlns="http://www.w3.org/2000/svg"
 width="180.000000pt" height="180.000000pt" viewBox="0 0 180.000000 180.000000"
 preserveAspectRatio="xMidYMid meet">
<metadata>
Created by potrace 1.11, written by Peter Selinger 2001-2013
</metadata>
<g transform="translate(0.000000,180.000000) scale(0.100000,-0.100000)"
fill="#000000" stroke="none">
<path d="M1170 1375 c0 -18 5 -25 20 -25 15 0 20 7 20 25 0 18 -5 25 -20 25
-15 0 -20 -7 -20 -25z"/>
<path d="M1300 1375 c0 -18 5 -25 20 -25 15 0 20 7 20 25 0 18 -5 25 -20 25
-15 0 -20 -7 -20 -25z"/>
<path d="M70 1370 c0 -18 7 -20 60 -20 l60 0 0 -155 c0 -148 1 -155 20 -155
19 0 20 7 20 155 l0 155 60 0 c53 0 60 2 60 20 0 19 -7 20 -140 20 -133 0
-140 -1 -140 -20z"/>
<path d="M381 1297 c-88 -45 -93 -195 -9 -247 57 -34 168 -22 168 19 0 17 -4
19 -32 10 -60 -17 -97 -11 -129 20 -52 53 -42 61 71 61 l100 0 0 33 c0 87 -92
144 -169 104z m106 -49 c42 -39 31 -48 -57 -48 -87 0 -95 6 -55 45 31 32 80
33 112 3z"/>
<path d="M648 1294 c-32 -17 -45 -55 -32 -93 7 -21 22 -30 73 -47 74 -24 97
-47 67 -70 -23 -16 -67 -18 -114 -5 -31 9 -33 8 -30 -12 8 -53 171 -46 192 8
19 50 -3 86 -65 106 -75 24 -89 32 -89 50 0 35 68 51 124 29 23 -8 26 -7 26
10 0 38 -98 54 -152 24z"/>
<path d="M872 1189 c3 -107 4 -112 31 -135 35 -30 85 -31 121 -3 21 17 26 18
26 5 0 -9 8 -16 20 -16 19 0 20 7 20 130 0 123 -1 130 -20 130 -19 0 -20 -7
-20 -90 0 -83 -2 -93 -25 -115 -29 -30 -68 -32 -95 -5 -17 17 -20 33 -20 115
0 90 -1 95 -21 95 -20 0 -21 -4 -17 -111z"/>
<path d="M1168 1148 c-3 -148 -4 -153 -25 -163 -13 -5 -23 -18 -23 -27 0 -12
8 -18 23 -18 57 1 67 32 67 209 0 144 -1 151 -20 151 -18 0 -20 -8 -22 -152z"/>
<path d="M1300 1170 c0 -123 1 -130 20 -130 19 0 20 7 20 130 0 123 -1 130
-20 130 -19 0 -20 -7 -20 -130z"/>
<path d="M195 816 c-114 -50 -128 -253 -23 -330 62 -45 208 -26 208 27 l0 25
-37 -20 c-47 -24 -123 -20 -154 8 -64 56 -64 182 0 238 31 28 107 32 154 8
l37 -20 0 25 c0 45 -115 70 -185 39z"/>
<path d="M450 650 c0 -173 1 -180 20 -180 19 0 20 7 20 90 0 83 2 93 25 115
29 30 68 32 95 5 17 -17 20 -33 20 -115 0 -90 1 -95 21 -95 20 0 21 4 17 111
-3 107 -4 112 -31 135 -35 30 -85 31 -121 3 l-26 -20 0 65 c0 59 -2 66 -20 66
-19 0 -20 -7 -20 -180z"/>
<path d="M790 731 c-15 -4 -26 -15 -28 -29 -3 -20 -1 -21 23 -12 38 15 87 12
113 -6 40 -28 27 -41 -44 -46 -58 -4 -70 -8 -90 -32 -75 -86 40 -196 130 -125
21 17 26 18 26 5 0 -9 8 -16 20 -16 19 0 20 7 20 95 0 52 -5 106 -12 120 -21
47 -87 66 -158 46z m130 -146 c0 -30 -31 -75 -55 -81 -66 -16 -113 39 -65 78
29 24 120 26 120 3z"/>
<path d="M1106 719 c-21 -17 -26 -18 -26 -5 0 9 -8 16 -20 16 -19 0 -20 -7
-20 -130 0 -121 1 -130 19 -130 17 0 19 10 23 96 3 86 5 98 27 115 13 10 36
19 52 19 22 0 29 5 29 20 0 27 -48 27 -84 -1z"/>
<path d="M1296 719 c-21 -17 -26 -18 -26 -5 0 9 -8 16 -20 16 -19 0 -20 -7
-20 -130 0 -123 1 -130 20 -130 19 0 20 7 20 90 0 83 2 93 25 115 13 14 35 25
49 25 42 0 56 -33 56 -137 0 -86 1 -93 20 -93 19 0 20 7 20 90 0 83 2 93 25
115 13 14 35 25 49 25 42 0 56 -33 56 -137 0 -88 1 -93 21 -93 20 0 21 4 17
111 -3 107 -4 112 -31 135 -36 31 -78 31 -114 0 l-28 -24 -28 24 c-35 29 -76
31 -111 3z"/>
</g>
</svg>
